# xmcd
#
# Track frame offsets:
#	150
#	16110
#	32413
#	47913
#	63258
#	79765
#	94326
#	109614
#	126944
#	141723
#	158104
#	174513
#	189456
#
# Disc length: 2675 seconds
#
# Revision: 1
# Processed by: cddbd v1.5.2PL0 Copyright (c) Steve Scherf et al.
# Submitted via: audiograbber 1.83.01
#
DISCID=aa0a710d
DTITLE=Danielle Bradbery - The Voice Performace
DYEAR=1900
DGENRE=Country
TTITLE0=Mean
TTITLE1=Put Your Records On
TTITLE2=Jesus, Take The Wheel
TTITLE3=Maybe It Was Memphis
TTITLE4=Wasted
TTITLE5=Head carolina, Tails California
TTITLE6=Grandpa (Tell Me About The Good Old Days)
TTITLE7=A Little Bit Stronger
TTITLE8=Shake The Sugar Tree
TTITLE9=Who I Am
TTITLE10=Please Remember Me
TTITLE11=Born To Fly
TTITLE12=Timber, I Am Falling In Love
EXTD=
EXTT0=
EXTT1=
EXTT2=
EXTT3=
EXTT4=
EXTT5=
EXTT6=
EXTT7=
EXTT8=
EXTT9=
EXTT10=
EXTT11=
EXTT12=
PLAYORDER=
